<svg xmlns="http://www.w3.org/2000/svg" xmlns:xlink="http://www.w3.org/1999/xlink" contentStyleType="text/css" data-diagram-type="MINDMAP" height="753px" preserveAspectRatio="none" style="width:743px;height:753px;background:#FFFFFF;" version="1.1" viewBox="0 0 743 753" width="743px" zoomAndPan="magnify"><defs/><g><rect fill="#F1F1F1" height="36.2969" rx="12.5" ry="12.5" style="stroke:#181818;stroke-width:1.5;" width="172.7422" x="10" y="357.7813"/><text fill="#000000" font-family="sans-serif" font-size="14" lengthAdjust="spacing" textLength="152.7422" x="20" y="380.7764">Quality Requirements</text><rect fill="#F1F1F1" height="36.2969" rx="12.5" ry="12.5" style="stroke:#181818;stroke-width:1.5;" width="180.8154" x="232.7422" y="76.2969"/><text fill="#000000" font-family="sans-serif" font-size="14" lengthAdjust="spacing" textLength="160.8154" x="242.7422" y="99.292">Performance (Medium)</text><rect fill="#F1F1F1" height="36.2969" rx="12.5" ry="12.5" style="stroke:#181818;stroke-width:1.5;" width="208.2754" x="463.5576" y="20"/><text fill="#000000" font-family="sans-serif" font-size="14" lengthAdjust="spacing" textLength="188.2754" x="473.5576" y="42.9951">Fast page load and refresh</text><path d="M413.5576,94.4453 L423.5576,94.4453 C438.5576,94.4453 438.5576,38.1484 453.5576,38.1484 L463.5576,38.1484" fill="none" style="stroke:#181818;stroke-width:1;"/><rect fill="#F1F1F1" height="36.2969" rx="12.5" ry="12.5" style="stroke:#181818;stroke-width:1.5;" width="245.1621" x="463.5576" y="76.2969"/><text fill="#000000" font-family="sans-serif" font-size="14" lengthAdjust="spacing" textLength="225.1621" x="473.5576" y="99.292">Shortest possible response time</text><path d="M413.5576,94.4453 L423.5576,94.4453 C438.5576,94.4453 438.5576,94.4453 453.5576,94.4453 L463.5576,94.4453" fill="none" style="stroke:#181818;stroke-width:1;"/><rect fill="#F1F1F1" height="36.2969" rx="12.5" ry="12.5" style="stroke:#181818;stroke-width:1.5;" width="222.9521" x="463.5576" y="132.5938"/><text fill="#000000" font-family="sans-serif" font-size="14" lengthAdjust="spacing" textLength="202.9521" x="473.5576" y="155.5889">Efficient state reconstruction</text><path d="M413.5576,94.4453 L423.5576,94.4453 C438.5576,94.4453 438.5576,150.7422 453.5576,150.7422 L463.5576,150.7422" fill="none" style="stroke:#181818;stroke-width:1;"/><path d="M182.7422,375.9297 L192.7422,375.9297 C207.7422,375.9297 207.7422,94.4453 222.7422,94.4453 L232.7422,94.4453" fill="none" style="stroke:#181818;stroke-width:1;"/><rect fill="#F1F1F1" height="36.2969" rx="12.5" ry="12.5" style="stroke:#181818;stroke-width:1.5;" width="125.041" x="232.7422" y="245.1875"/><text fill="#000000" font-family="sans-serif" font-size="14" lengthAdjust="spacing" textLength="105.041" x="242.7422" y="268.1826">Security (High)</text><rect fill="#F1F1F1" height="36.2969" rx="12.5" ry="12.5" style="stroke:#181818;stroke-width:1.5;" width="173.0225" x="407.7832" y="188.8906"/><text fill="#000000" font-family="sans-serif" font-size="14" lengthAdjust="spacing" textLength="153.0225" x="417.7832" y="211.8857">Server-side validation</text><path d="M357.7832,263.3359 L367.7832,263.3359 C382.7832,263.3359 382.7832,207.0391 397.7832,207.0391 L407.7832,207.0391" fill="none" style="stroke:#181818;stroke-width:1;"/><rect fill="#F1F1F1" height="36.2969" rx="12.5" ry="12.5" style="stroke:#181818;stroke-width:1.5;" width="184.9717" x="407.7832" y="245.1875"/><text fill="#000000" font-family="sans-serif" font-size="14" lengthAdjust="spacing" textLength="164.9717" x="417.7832" y="268.1826">Anti-cheat mechanisms</text><path d="M357.7832,263.3359 L367.7832,263.3359 C382.7832,263.3359 382.7832,263.3359 397.7832,263.3359 L407.7832,263.3359" fill="none" style="stroke:#181818;stroke-width:1;"/><rect fill="#F1F1F1" height="36.2969" rx="12.5" ry="12.5" style="stroke:#181818;stroke-width:1.5;" width="225.0508" x="407.7832" y="301.4844"/><text fill="#000000" font-family="sans-serif" font-size="14" lengthAdjust="spacing" textLength="205.0508" x="417.7832" y="324.4795">Denial of fraudulent requests</text><path d="M357.7832,263.3359 L367.7832,263.3359 C382.7832,263.3359 382.7832,319.6328 397.7832,319.6328 L407.7832,319.6328" fill="none" style="stroke:#181818;stroke-width:1;"/><path d="M182.7422,375.9297 L192.7422,375.9297 C207.7422,375.9297 207.7422,263.3359 222.7422,263.3359 L232.7422,263.3359" fill="none" style="stroke:#181818;stroke-width:1;"/><rect fill="#F1F1F1" height="36.2969" rx="12.5" ry="12.5" style="stroke:#181818;stroke-width:1.5;" width="151.8037" x="232.7422" y="414.0781"/><text fill="#000000" font-family="sans-serif" font-size="14" lengthAdjust="spacing" textLength="131.8037" x="242.7422" y="437.0732">Usability (Medium)</text><rect fill="#F1F1F1" height="36.2969" rx="12.5" ry="12.5" style="stroke:#181818;stroke-width:1.5;" width="227.2588" x="434.5459" y="357.7813"/><text fill="#000000" font-family="sans-serif" font-size="14" lengthAdjust="spacing" textLength="207.2588" x="444.5459" y="380.7764">Clear onboarding instructions</text><path d="M384.5459,432.2266 L394.5459,432.2266 C409.5459,432.2266 409.5459,375.9297 424.5459,375.9297 L434.5459,375.9297" fill="none" style="stroke:#181818;stroke-width:1;"/><rect fill="#F1F1F1" height="36.2969" rx="12.5" ry="12.5" style="stroke:#181818;stroke-width:1.5;" width="138.1113" x="434.5459" y="414.0781"/><text fill="#000000" font-family="sans-serif" font-size="14" lengthAdjust="spacing" textLength="118.1113" x="444.5459" y="437.0732">Intuitive controls</text><path d="M384.5459,432.2266 L394.5459,432.2266 C409.5459,432.2266 409.5459,432.2266 424.5459,432.2266 L434.5459,432.2266" fill="none" style="stroke:#181818;stroke-width:1;"/><rect fill="#F1F1F1" height="36.2969" rx="12.5" ry="12.5" style="stroke:#181818;stroke-width:1.5;" width="209.4033" x="434.5459" y="470.375"/><text fill="#000000" font-family="sans-serif" font-size="14" lengthAdjust="spacing" textLength="189.4033" x="444.5459" y="493.3701">Visual feedback for actions</text><path d="M384.5459,432.2266 L394.5459,432.2266 C409.5459,432.2266 409.5459,488.5234 424.5459,488.5234 L434.5459,488.5234" fill="none" style="stroke:#181818;stroke-width:1;"/><path d="M182.7422,375.9297 L192.7422,375.9297 C207.7422,375.9297 207.7422,432.2266 222.7422,432.2266 L232.7422,432.2266" fill="none" style="stroke:#181818;stroke-width:1;"/><rect fill="#F1F1F1" height="36.2969" rx="12.5" ry="12.5" style="stroke:#181818;stroke-width:1.5;" width="194.5146" x="232.7422" y="611.1172"/><text fill="#000000" font-family="sans-serif" font-size="14" lengthAdjust="spacing" textLength="174.5146" x="242.7422" y="634.1123">Maintainability (Medium)</text><rect fill="#F1F1F1" height="36.2969" rx="12.5" ry="12.5" style="stroke:#181818;stroke-width:1.5;" width="166.4053" x="477.2568" y="526.6719"/><text fill="#000000" font-family="sans-serif" font-size="14" lengthAdjust="spacing" textLength="146.4053" x="487.2568" y="549.667">Modular architecture</text><path d="M427.2568,629.2656 L437.2568,629.2656 C452.2568,629.2656 452.2568,544.8203 467.2568,544.8203 L477.2568,544.8203" fill="none" style="stroke:#181818;stroke-width:1;"/><rect fill="#F1F1F1" height="36.2969" rx="12.5" ry="12.5" style="stroke:#181818;stroke-width:1.5;" width="167.8066" x="477.2568" y="582.9688"/><text fill="#000000" font-family="sans-serif" font-size="14" lengthAdjust="spacing" textLength="147.8066" x="487.2568" y="605.9639">Easy bug localization</text><path d="M427.2568,629.2656 L437.2568,629.2656 C452.2568,629.2656 452.2568,601.1172 467.2568,601.1172 L477.2568,601.1172" fill="none" style="stroke:#181818;stroke-width:1;"/><rect fill="#F1F1F1" height="36.2969" rx="12.5" ry="12.5" style="stroke:#181818;stroke-width:1.5;" width="190.7344" x="477.2568" y="639.2656"/><text fill="#000000" font-family="sans-serif" font-size="14" lengthAdjust="spacing" textLength="170.7344" x="487.2568" y="662.2607">Minimal impact changes</text><path d="M427.2568,629.2656 L437.2568,629.2656 C452.2568,629.2656 452.2568,657.4141 467.2568,657.4141 L477.2568,657.4141" fill="none" style="stroke:#181818;stroke-width:1;"/><rect fill="#F1F1F1" height="36.2969" rx="12.5" ry="12.5" style="stroke:#181818;stroke-width:1.5;" width="254.6914" x="477.2568" y="695.5625"/><text fill="#000000" font-family="sans-serif" font-size="14" lengthAdjust="spacing" textLength="234.6914" x="487.2568" y="718.5576">Clean and documented codebase</text><path d="M427.2568,629.2656 L437.2568,629.2656 C452.2568,629.2656 452.2568,713.7109 467.2568,713.7109 L477.2568,713.7109" fill="none" style="stroke:#181818;stroke-width:1;"/><path d="M182.7422,375.9297 L192.7422,375.9297 C207.7422,375.9297 207.7422,629.2656 222.7422,629.2656 L232.7422,629.2656" fill="none" style="stroke:#181818;stroke-width:1;"/><!--SRC=[RL9BZzD03BxdL_ZOLkgghGg2d1Qskq1fe6mVTsV6QImcCsKUaPPVZoSjMo5nc8lzZR-7VHyY-jYnrHsUYmdyI6Wuli0p_KhigICRGp6Pm9Pyuto7LX6CAjASkh7K9_248S8PJmJ6eGQq6Zmrda8xj7Ujyv4on8N0jI7fXhEpWI1oHmFciMbOiJ21Y8aPeGGGVLAHdStiErB9PrcZptngByGxyZtvQM1Dq8jeZLVq13xOo5FL4aReIBLeENHXwAp8CXfm3JGUaqucithnAX87duU0DGy9_EFomH1wSBPsw3NR4_1Du6No5niJH-u9H7pqpbpAHmwIA3H4kaRr4oH4mDTlK27RAE-_f9KJWKABNhKSISNahu5XU84wdIHo9Sv_tvnNRBaJFkxEmWBP-ud2gmKxx4SxbV9YIOjMJJK6Akv9Bk1w1SNMe8s7QWCIS93HCBzRp1PlxkQpqJuHV7Czp9OmdvMBMRby3zLk3xa_BaQVjXi8Bdcv4isI4DSfQniNQ-mHdfFDIo_X-vdiUlNrRm4URS_UsIogM1-h6-3jSlgHutNNSAoA5JMOJ9GV8bqMKS9X_pHzLsp4Q98hB85iyU1ahdyfmIPZ_W00]--></g></svg>